{
	"asset":{
		"generator":"Khronos glTF Blender I/O v4.1.62",
		"version":"2.0"
	},
	"extensionsUsed":[
		"KHR_materials_specular"
	],
	"scene":0,
	"scenes":[
		{
			"name":"Scene",
			"nodes":[
				42
			]
		}
	],
	"nodes":[
		{
			"name":"leg_front_right_toe_end",
			"rotation":[
				-7.450569938782792e-09,
				8.882487634309655e-08,
				7.450579175838357e-08,
				1
			],
			"scale":[
				1,
				0.9999998807907104,
				1
			],
			"translation":[
				1.4473243936663494e-07,
				2.9999966621398926,
				-7.675815822949517e-07
			]
		},
		{
			"children":[
				0
			],
			"name":"leg_front_right_toe",
			"rotation":[
				-0.6293976306915283,
				-0.029276950284838676,
				-0.029277028515934944,
				0.7759795784950256
			],
			"scale":[
				1.0000001192092896,
				1.0000001192092896,
				1
			],
			"translation":[
				-2.086162567138672e-07,
				5.825162887573242,
				8.642673492431641e-07
			]
		},
		{
			"children":[
				1
			],
			"name":"leg_front_right_ankle",
			"rotation":[
				-0.1450321227312088,
				0.3706132471561432,
				0.032612789422273636,
				0.9168140292167664
			],
			"scale":[
				1,
				0.9999999403953552,
				0.9999999403953552
			],
			"translation":[
				2.384185791015625e-07,
				9.844902038574219,
				-4.76837158203125e-07
			]
		},
		{
			"children":[
				2
			],
			"name":"leg_front_right_bot0",
			"rotation":[
				-0.05171407759189606,
				0.37380558252334595,
				-0.0006277152569964528,
				0.926064133644104
			],
			"scale":[
				1,
				1.0000001192092896,
				1
			],
			"translation":[
				1.3113021850585938e-06,
				9.584717750549316,
				-4.76837158203125e-07
			]
		},
		{
			"children":[
				3
			],
			"name":"leg_front_right_top1",
			"rotation":[
				0.3088728189468384,
				-0.9293678998947144,
				-0.15848730504512787,
				0.12551754713058472
			],
			"scale":[
				1,
				1.0000001192092896,
				0.9999999403953552
			],
			"translation":[
				-5.438923835754395e-07,
				10.313691139221191,
				-8.428469300270081e-07
			]
		},
		{
			"children":[
				4
			],
			"name":"leg_front_right_top0",
			"rotation":[
				0.29600903391838074,
				0.41817015409469604,
				0.4224083125591278,
				0.7477189302444458
			],
			"scale":[
				1,
				0.9999998807907104,
				1
			],
			"translation":[
				0,
				5.950303077697754,
				-4.6193599700927734e-07
			]
		},
		{
			"name":"head0_end",
			"rotation":[
				-1.7136346741608577e-07,
				-6.548362546654474e-11,
				3.055902197957039e-10,
				1
			],
			"scale":[
				1,
				1,
				0.9999999403953552
			],
			"translation":[
				2.7939677238464355e-09,
				6.961691379547119,
				6.58910721540451e-07
			]
		},
		{
			"children":[
				6
			],
			"name":"head0",
			"rotation":[
				0.5146591663360596,
				-0.00039251960697583854,
				-0.0011798248160630465,
				0.8573939800262451
			],
			"scale":[
				1,
				0.9999998807907104,
				1
			],
			"translation":[
				0,
				4.340001106262207,
				9.5367431640625e-07
			]
		},
		{
			"children":[
				7
			],
			"name":"neck1",
			"rotation":[
				-0.1927991509437561,
				0,
				0,
				0.9812382459640503
			],
			"scale":[
				1,
				0.9999999403953552,
				1
			],
			"translation":[
				0,
				10.728952407836914,
				9.5367431640625e-07
			]
		},
		{
			"children":[
				8
			],
			"name":"neck0",
			"rotation":[
				-0.2620711922645569,
				0,
				0,
				0.9650485515594482
			],
			"translation":[
				0,
				5.950303077697754,
				-4.6193599700927734e-07
			]
		},
		{
			"name":"leg_front_left_toe_end",
			"rotation":[
				-7.450569938782792e-09,
				-8.882487634309655e-08,
				-7.450579175838357e-08,
				1
			],
			"scale":[
				1,
				0.9999998807907104,
				1
			],
			"translation":[
				-1.4473243936663494e-07,
				2.9999966621398926,
				-7.675815822949517e-07
			]
		},
		{
			"children":[
				10
			],
			"name":"leg_front_left_toe",
			"rotation":[
				-0.6293976306915283,
				0.029276950284838676,
				0.029277028515934944,
				0.7759795784950256
			],
			"scale":[
				1.0000001192092896,
				1.0000001192092896,
				1
			],
			"translation":[
				2.086162567138672e-07,
				5.825162887573242,
				8.642673492431641e-07
			]
		},
		{
			"children":[
				11
			],
			"name":"leg_front_left_ankle",
			"rotation":[
				-0.1450321227312088,
				-0.3706132471561432,
				-0.032612789422273636,
				0.9168140292167664
			],
			"scale":[
				1,
				0.9999999403953552,
				0.9999999403953552
			],
			"translation":[
				-2.384185791015625e-07,
				9.844902038574219,
				-4.76837158203125e-07
			]
		},
		{
			"children":[
				12
			],
			"name":"leg_front_left_bot0",
			"rotation":[
				-0.05171407759189606,
				-0.37380558252334595,
				0.0006277152569964528,
				0.926064133644104
			],
			"scale":[
				1,
				1.0000001192092896,
				1
			],
			"translation":[
				-1.3113021850585938e-06,
				9.584717750549316,
				-4.76837158203125e-07
			]
		},
		{
			"children":[
				13
			],
			"name":"leg_front_left_top1",
			"rotation":[
				0.3088728189468384,
				0.9293678998947144,
				0.15848730504512787,
				0.12551754713058472
			],
			"scale":[
				1,
				1.0000001192092896,
				0.9999999403953552
			],
			"translation":[
				5.438923835754395e-07,
				10.313691139221191,
				-8.428469300270081e-07
			]
		},
		{
			"children":[
				14
			],
			"name":"leg_front_left_top0",
			"rotation":[
				0.29600903391838074,
				-0.41817015409469604,
				-0.4224083125591278,
				0.7477189302444458
			],
			"scale":[
				1,
				0.9999998807907104,
				1
			],
			"translation":[
				0,
				5.950303077697754,
				-4.6193599700927734e-07
			]
		},
		{
			"children":[
				5,
				9,
				15
			],
			"name":"body_top1",
			"rotation":[
				-0.011707877740263939,
				0,
				0,
				0.9999314546585083
			],
			"translation":[
				0,
				6.000535011291504,
				8.344650268554688e-07
			]
		},
		{
			"children":[
				16
			],
			"name":"body_top0",
			"rotation":[
				-0.011325751431286335,
				0,
				0,
				0.9999358654022217
			],
			"translation":[
				0,
				5.003239631652832,
				-2.384185791015625e-07
			]
		},
		{
			"name":"tail6_end",
			"rotation":[
				1.5688783605583012e-09,
				-2.6991983759216964e-08,
				-1.927523918254792e-09,
				1
			],
			"translation":[
				-2.60770320892334e-08,
				2.0506093502044678,
				1.5401747077703476e-07
			]
		},
		{
			"children":[
				18
			],
			"name":"tail6",
			"rotation":[
				0.025122089311480522,
				-0.012492218986153603,
				0.011883195489645004,
				0.9995356798171997
			],
			"translation":[
				2.042810365310288e-14,
				4.004994869232178,
				-7.152557373046875e-07
			]
		},
		{
			"children":[
				19
			],
			"name":"tail5",
			"rotation":[
				-0.00669475831091404,
				1.4869577791287725e-11,
				-3.8238894689568426e-11,
				0.9999775886535645
			],
			"translation":[
				3.348432642269472e-13,
				4.1027398109436035,
				2.384185791015625e-07
			]
		},
		{
			"children":[
				20
			],
			"name":"tail4",
			"rotation":[
				0.02704276144504547,
				1.523500117173171e-07,
				-3.2977927055810596e-09,
				0.9996342658996582
			],
			"scale":[
				1,
				0.9999999403953552,
				1
			],
			"translation":[
				1.4923081437245855e-08,
				4.418145656585693,
				-7.152557373046875e-07
			]
		},
		{
			"children":[
				21
			],
			"name":"tail3",
			"rotation":[
				0.02090941183269024,
				-0.0061730933375656605,
				0.005636988673359156,
				0.9997464418411255
			],
			"scale":[
				0.9999999403953552,
				1,
				0.9999999403953552
			],
			"translation":[
				2.2359035511954062e-08,
				4.540098667144775,
				-6.560192389315489e-10
			]
		},
		{
			"children":[
				22
			],
			"name":"tail2",
			"rotation":[
				0.07622739672660828,
				0.01574496366083622,
				-0.012938662432134151,
				0.9968822002410889
			],
			"scale":[
				1.0000001192092896,
				0.9999998807907104,
				0.9999998211860657
			],
			"translation":[
				2.2351741790771484e-08,
				6.9307403564453125,
				9.590876288712025e-07
			]
		},
		{
			"children":[
				23
			],
			"name":"tail1",
			"rotation":[
				-0.08028054982423782,
				-0.009022428654134274,
				0.007964870892465115,
				0.9966996908187866
			],
			"scale":[
				1.0000001192092896,
				1.0000001192092896,
				1.0000001192092896
			],
			"translation":[
				6.0291966974546085e-09,
				1.6124540567398071,
				-9.621062417863868e-07
			]
		},
		{
			"children":[
				24
			],
			"name":"tail0",
			"rotation":[
				0.05444972962141037,
				-0.0038195266388356686,
				0.0033717032056301832,
				0.9985035061836243
			],
			"scale":[
				1,
				1.0000001192092896,
				1
			],
			"translation":[
				-3.725290298461914e-09,
				7.914641380310059,
				-3.3492688089609146e-07
			]
		},
		{
			"children":[
				25
			],
			"name":"pelvis",
			"rotation":[
				-0.1069277748465538,
				0.0036366882268339396,
				-0.00356806768104434,
				0.9942537546157837
			],
			"scale":[
				0.9999999403953552,
				1,
				0.9999999403953552
			],
			"translation":[
				0,
				10.50190544128418,
				-2.1606683731079102e-07
			]
		},
		{
			"name":"leg_hind_right_toe_end",
			"rotation":[
				4.964880950808492e-09,
				-7.183719503700559e-07,
				-1.5397867514366226e-07,
				1
			],
			"translation":[
				3.5268305964564206e-07,
				3.0000035762786865,
				3.3651904232101515e-06
			]
		},
		{
			"children":[
				27
			],
			"name":"leg_hind_right_toe",
			"rotation":[
				-0.6049324870109558,
				-0.22801706194877625,
				-0.22800904512405396,
				0.7280637621879578
			],
			"scale":[
				0.9999998807907104,
				0.9999999403953552,
				1
			],
			"translation":[
				8.344650268554688e-07,
				11.5758056640625,
				-4.76837158203125e-07
			]
		},
		{
			"children":[
				28
			],
			"name":"leg_hind_right_ankle",
			"rotation":[
				-0.2787020802497864,
				0.07021705061197281,
				-0.0888596698641777,
				0.9536764025688171
			],
			"scale":[
				1,
				1,
				1.0000001192092896
			],
			"translation":[
				5.960464477539062e-07,
				7.227436065673828,
				-4.172325134277344e-07
			]
		},
		{
			"children":[
				29
			],
			"name":"leg_hind_right_bot0",
			"rotation":[
				0.047539230436086655,
				0.24557998776435852,
				-0.04156959801912308,
				0.9673171639442444
			],
			"scale":[
				1,
				1,
				0.9999999403953552
			],
			"translation":[
				-2.3015650185698178e-07,
				7.328436374664307,
				-6.799050424888264e-07
			]
		},
		{
			"children":[
				30
			],
			"name":"leg_hind_right_top1",
			"rotation":[
				0.37955987453460693,
				-0.8693972826004028,
				0.14716391265392303,
				0.2800454795360565
			],
			"scale":[
				0.9999999403953552,
				0.9999998807907104,
				0.9999999403953552
			],
			"translation":[
				1.601874828338623e-07,
				10.388673782348633,
				-2.123415470123291e-07
			]
		},
		{
			"children":[
				31
			],
			"name":"leg_hind_right_top0",
			"rotation":[
				-0.47151193022727966,
				0.629410982131958,
				-0.6175360083580017,
				0.012952612712979317
			],
			"scale":[
				1,
				0.9999996423721313,
				0.9999999403953552
			],
			"translation":[
				0,
				10.50190544128418,
				-2.1606683731079102e-07
			]
		},
		{
			"name":"leg_hind_left_toe_end",
			"rotation":[
				4.964880950808492e-09,
				7.183719503700559e-07,
				1.5397867514366226e-07,
				1
			],
			"translation":[
				-3.5268305964564206e-07,
				3.0000035762786865,
				3.3651904232101515e-06
			]
		},
		{
			"children":[
				33
			],
			"name":"leg_hind_left_toe",
			"rotation":[
				-0.6049324870109558,
				0.22801706194877625,
				0.22800904512405396,
				0.7280637621879578
			],
			"scale":[
				0.9999998807907104,
				0.9999999403953552,
				1
			],
			"translation":[
				-8.344650268554688e-07,
				11.5758056640625,
				-4.76837158203125e-07
			]
		},
		{
			"children":[
				34
			],
			"name":"leg_hind_left_ankle",
			"rotation":[
				-0.2787020802497864,
				-0.07021705061197281,
				0.0888596698641777,
				0.9536764025688171
			],
			"scale":[
				1,
				1,
				1.0000001192092896
			],
			"translation":[
				-5.960464477539062e-07,
				7.227436065673828,
				-4.172325134277344e-07
			]
		},
		{
			"children":[
				35
			],
			"name":"leg_hind_left_bot0",
			"rotation":[
				0.047539230436086655,
				-0.24557998776435852,
				0.04156959801912308,
				0.9673171639442444
			],
			"scale":[
				1,
				1,
				0.9999999403953552
			],
			"translation":[
				2.3015650185698178e-07,
				7.328436374664307,
				-6.799050424888264e-07
			]
		},
		{
			"children":[
				36
			],
			"name":"leg_hind_left_top1",
			"rotation":[
				0.37955987453460693,
				0.8693972826004028,
				-0.14716391265392303,
				0.2800454795360565
			],
			"scale":[
				0.9999999403953552,
				0.9999998807907104,
				0.9999999403953552
			],
			"translation":[
				-1.601874828338623e-07,
				10.388673782348633,
				-2.123415470123291e-07
			]
		},
		{
			"children":[
				37
			],
			"name":"leg_hind_left_top0",
			"rotation":[
				-0.47151193022727966,
				-0.629410982131958,
				0.6175360083580017,
				0.012952612712979317
			],
			"scale":[
				1,
				0.9999996423721313,
				0.9999999403953552
			],
			"translation":[
				0,
				10.50190544128418,
				-2.1606683731079102e-07
			]
		},
		{
			"children":[
				26,
				32,
				38
			],
			"name":"body_bot",
			"rotation":[
				0.9996215105056763,
				0,
				0,
				0.02751140296459198
			],
			"scale":[
				1,
				1,
				1.0000022649765015
			],
			"translation":[
				0,
				4.172325134277344e-07,
				1.087784767150879e-06
			]
		},
		{
			"children":[
				17,
				39
			],
			"name":"body",
			"rotation":[
				0.017991289496421814,
				0,
				0,
				0.9998381733894348
			],
			"translation":[
				0,
				3.950000047683716,
				-8.380000114440918
			]
		},
		{
			"mesh":0,
			"name":"12221_Cat_v1_l3",
			"skin":0
		},
		{
			"children":[
				41,
				40
			],
			"name":"rig",
			"rotation":[
				0.7071068286895752,
				0,
				0,
				0.7071068286895752
			]
		}
	],
	"materials":[
		{
			"doubleSided":true,
			"extensions":{
				"KHR_materials_specular":{
					"specularFactor":0
				}
			},
			"name":"Cat",
			"normalTexture":{
				"index":0
			},
			"pbrMetallicRoughness":{
				"baseColorTexture":{
					"index":1
				},
				"metallicFactor":0,
				"roughnessFactor":0.8945907354354858
			}
		}
	],
	"meshes":[
		{
			"name":"12221_Cat_v1_l3",
			"primitives":[
				{
					"attributes":{
						"POSITION":0,
						"NORMAL":1,
						"TEXCOORD_0":2,
						"JOINTS_0":3,
						"WEIGHTS_0":4
					},
					"indices":5,
					"material":0
				}
			]
		}
	],
	"textures":[
		{
			"sampler":0,
			"source":0
		},
		{
			"sampler":0,
			"source":1
		}
	],
	"images":[
		{
			"mimeType":"image/jpeg",
			"name":"Cat_bump",
			"uri":"Cat_bump.jpg"
		},
		{
			"mimeType":"image/jpeg",
			"name":"Cat_diffuse",
			"uri":"Cat_diffuse.jpg"
		}
	],
	"skins":[
		{
			"inverseBindMatrices":6,
			"joints":[
				40,
				17,
				16,
				5,
				4,
				3,
				2,
				1,
				0,
				9,
				8,
				7,
				6,
				15,
				14,
				13,
				12,
				11,
				10,
				39,
				26,
				25,
				24,
				23,
				22,
				21,
				20,
				19,
				18,
				32,
				31,
				30,
				29,
				28,
				27,
				38,
				37,
				36,
				35,
				34,
				33
			],
			"name":"rig"
		}
	],
	"accessors":[
		{
			"bufferView":0,
			"componentType":5126,
			"count":10413,
			"max":[
				8.643177032470703,
				25.88072967529297,
				41.89849090576172
			],
			"min":[
				-8.643177032470703,
				-25.880727767944336,
				-41.89849090576172
			],
			"type":"VEC3"
		},
		{
			"bufferView":1,
			"componentType":5126,
			"count":10413,
			"type":"VEC3"
		},
		{
			"bufferView":2,
			"componentType":5126,
			"count":10413,
			"type":"VEC2"
		},
		{
			"bufferView":3,
			"componentType":5121,
			"count":10413,
			"type":"VEC4"
		},
		{
			"bufferView":4,
			"componentType":5126,
			"count":10413,
			"type":"VEC4"
		},
		{
			"bufferView":5,
			"componentType":5123,
			"count":58686,
			"type":"SCALAR"
		},
		{
			"bufferView":6,
			"componentType":5126,
			"count":41,
			"type":"MAT4"
		}
	],
	"bufferViews":[
		{
			"buffer":0,
			"byteLength":124956,
			"byteOffset":0,
			"target":34962
		},
		{
			"buffer":0,
			"byteLength":124956,
			"byteOffset":124956,
			"target":34962
		},
		{
			"buffer":0,
			"byteLength":83304,
			"byteOffset":249912,
			"target":34962
		},
		{
			"buffer":0,
			"byteLength":41652,
			"byteOffset":333216,
			"target":34962
		},
		{
			"buffer":0,
			"byteLength":166608,
			"byteOffset":374868,
			"target":34962
		},
		{
			"buffer":0,
			"byteLength":117372,
			"byteOffset":541476,
			"target":34963
		},
		{
			"buffer":0,
			"byteLength":2624,
			"byteOffset":658848
		}
	],
	"samplers":[
		{
			"magFilter":9729,
			"minFilter":9987
		}
	],
	"buffers":[
		{
			"byteLength":661472,
			"uri":"12221_Cat_v1_l3.bin"
		}
	]
}
